<svg xmlns="http://www.w3.org/2000/svg" width="60" height="60" fill="none" viewBox="0 0 60 60"><path fill="#FF3D43" d="M57.6562 30C57.658 27.9156 57.145 25.8631 56.1627 24.0247C55.1805 22.1863 53.7594 20.619 52.0256 19.4619C50.2919 18.3048 48.2992 17.5939 46.2247 17.3922C44.1501 17.1905 42.0578 17.5043 40.1337 18.3058C38.2095 19.1072 36.5131 20.3715 35.1951 21.9862C33.8771 23.601 32.9784 25.5163 32.5787 27.562C32.1789 29.6077 32.2906 31.7204 32.9039 33.7125C33.5171 35.7046 34.6128 37.5145 36.0938 38.9812V52.5C36.0937 52.7397 36.1549 52.9754 36.2715 53.1847C36.3881 53.3941 36.5563 53.5702 36.7601 53.6963C36.964 53.8224 37.1966 53.8943 37.436 53.9052C37.6755 53.9161 37.9137 53.8656 38.1281 53.7586L45 50.3227L51.8719 53.7586C52.067 53.8558 52.282 53.9064 52.5 53.9062C52.761 53.9067 53.0169 53.8336 53.2383 53.6953C53.4422 53.5695 53.6107 53.3936 53.7276 53.1844C53.8445 52.9752 53.906 52.7396 53.9062 52.5V38.9812C55.0949 37.8071 56.0384 36.4085 56.6822 34.8668C57.3259 33.325 57.657 31.6708 57.6562 30ZM35.1562 30C35.1562 28.0531 35.7336 26.1499 36.8152 24.5311C37.8969 22.9123 39.4342 21.6506 41.233 20.9056C43.0317 20.1605 45.0109 19.9656 46.9204 20.3454C48.8299 20.7252 50.5839 21.6627 51.9606 23.0394C53.3373 24.4161 54.2748 26.1701 54.6546 28.0796C55.0344 29.9891 54.8395 31.9683 54.0944 33.767C53.3494 35.5657 52.0877 37.1031 50.4689 38.1848C48.8501 39.2664 46.9469 39.8437 45 39.8437C42.3893 39.8437 39.8855 38.8066 38.0394 36.9606C36.1934 35.1145 35.1563 32.6107 35.1562 30ZM51.0938 50.2242L45.6281 47.4914C45.4331 47.394 45.218 47.3433 45 47.3433C44.782 47.3433 44.5669 47.394 44.3719 47.4914L38.9062 50.2242V41.0836C40.7726 42.1121 42.869 42.6515 45 42.6515C47.131 42.6515 49.2274 42.1121 51.0938 41.0836V50.2242ZM31.4062 45C31.4062 45.373 31.2581 45.7306 30.9944 45.9944C30.7306 46.2581 30.373 46.4062 30 46.4062H9.375C8.50476 46.4062 7.67016 46.0605 7.05481 45.4452C6.43945 44.8298 6.09375 43.9952 6.09375 43.125V13.125C6.09375 12.2548 6.43945 11.4202 7.05481 10.8048C7.67016 10.1895 8.50476 9.84375 9.375 9.84375H50.625C51.4952 9.84375 52.3298 10.1895 52.9452 10.8048C53.5605 11.4202 53.9062 12.2548 53.9062 13.125C53.9062 13.498 53.7581 13.8556 53.4944 14.1194C53.2306 14.3831 52.873 14.5312 52.5 14.5312C52.127 14.5312 51.7694 14.3831 51.5056 14.1194C51.2419 13.8556 51.0938 13.498 51.0938 13.125C51.0938 13.0007 51.0444 12.8815 50.9565 12.7935C50.8685 12.7056 50.7493 12.6562 50.625 12.6562H9.375C9.25068 12.6562 9.13145 12.7056 9.04354 12.7935C8.95564 12.8815 8.90625 13.0007 8.90625 13.125V43.125C8.90625 43.2493 8.95564 43.3685 9.04354 43.4565C9.13145 43.5444 9.25068 43.5937 9.375 43.5937H30C30.373 43.5937 30.7306 43.7419 30.9944 44.0056C31.2581 44.2694 31.4062 44.627 31.4062 45ZM27.6562 31.875C27.6562 32.248 27.5081 32.6056 27.2444 32.8694C26.9806 33.1331 26.623 33.2812 26.25 33.2812H16.875C16.502 33.2812 16.1444 33.1331 15.8806 32.8694C15.6169 32.6056 15.4688 32.248 15.4688 31.875C15.4688 31.502 15.6169 31.1444 15.8806 30.8806C16.1444 30.6169 16.502 30.4687 16.875 30.4687H26.25C26.623 30.4687 26.9806 30.6169 27.2444 30.8806C27.5081 31.1444 27.6562 31.502 27.6562 31.875ZM27.6562 24.375C27.6562 24.748 27.5081 25.1056 27.2444 25.3694C26.9806 25.6331 26.623 25.7812 26.25 25.7812H16.875C16.502 25.7812 16.1444 25.6331 15.8806 25.3694C15.6169 25.1056 15.4688 24.748 15.4688 24.375C15.4688 24.002 15.6169 23.6444 15.8806 23.3806C16.1444 23.1169 16.502 22.9687 16.875 22.9687H26.25C26.623 22.9687 26.9806 23.1169 27.2444 23.3806C27.5081 23.6444 27.6562 24.002 27.6562 24.375Z"/></svg>