<svg width="16" height="16" viewBox="0 0 16 16" fill="none" xmlns="http://www.w3.org/2000/svg">
<path d="M6.26234 14.0319H9.98734C13.0915 14.0319 14.3332 12.7902 14.3332 9.68607V5.96107C14.3332 2.8569 13.0915 1.61523 9.98734 1.61523H6.26234C3.15817 1.61523 1.9165 2.8569 1.9165 5.96107V9.68607C1.9165 12.7902 3.15817 14.0319 6.26234 14.0319Z" stroke="#FFFDF9" stroke-width="0.93125" stroke-linecap="round" stroke-linejoin="round"/>
<path d="M8.1247 9.99671C8.41005 9.99671 8.69261 9.94051 8.95624 9.83131C9.21987 9.72211 9.45941 9.56205 9.66118 9.36028C9.86296 9.15851 10.023 8.91897 10.1322 8.65533C10.2414 8.3917 10.2976 8.10915 10.2976 7.8238C10.2976 7.53844 10.2414 7.25589 10.1322 6.99226C10.023 6.72863 9.86296 6.48909 9.66118 6.28731C9.45941 6.08554 9.21987 5.92548 8.95624 5.81628C8.69261 5.70708 8.41005 5.65088 8.1247 5.65088C7.54841 5.65088 6.99572 5.87981 6.58821 6.28731C6.18071 6.69481 5.95178 7.2475 5.95178 7.8238C5.95178 8.40009 6.18071 8.95278 6.58821 9.36028C6.99572 9.76778 7.54841 9.99671 8.1247 9.99671V9.99671Z" stroke="#FFFDF9" stroke-width="0.93125" stroke-linecap="round" stroke-linejoin="round"/>
<path d="M11.6238 4.71973H11.6318" stroke="#FFFDF9" stroke-width="0.93125" stroke-linecap="round" stroke-linejoin="round"/>
</svg>
