<svg width="50" height="50" viewBox="0 0 50 50" fill="none" xmlns="http://www.w3.org/2000/svg">
<path fill-rule="evenodd" clip-rule="evenodd" d="M29.1667 14.5834C28.6142 14.5834 28.0843 14.8029 27.6936 15.1936C27.3029 15.5843 27.0834 16.1142 27.0834 16.6667V33.3334C27.0834 33.8859 27.3029 34.4158 27.6936 34.8065C28.0843 35.1972 28.6142 35.4167 29.1667 35.4167H37.5C38.0526 35.4167 38.5825 35.1972 38.9732 34.8065C39.3639 34.4158 39.5834 33.8859 39.5834 33.3334V16.6667C39.5834 16.1142 39.3639 15.5843 38.9732 15.1936C38.5825 14.8029 38.0526 14.5834 37.5 14.5834H29.1667ZM35.4167 18.75H31.25V31.25H35.4167V18.75Z" fill="#3DFFAE"/>
<path d="M12.5001 14.5834C11.9475 14.5834 11.4176 14.8029 11.0269 15.1936C10.6362 15.5843 10.4167 16.1142 10.4167 16.6667C10.4167 17.2192 10.6362 17.7491 11.0269 18.1398C11.4176 18.5305 11.9475 18.75 12.5001 18.75H20.8334C21.3859 18.75 21.9159 18.5305 22.3066 18.1398C22.6973 17.7491 22.9167 17.2192 22.9167 16.6667C22.9167 16.1142 22.6973 15.5843 22.3066 15.1936C21.9159 14.8029 21.3859 14.5834 20.8334 14.5834H12.5001ZM12.5001 22.9167C11.9475 22.9167 11.4176 23.1362 11.0269 23.5269C10.6362 23.9176 10.4167 24.4475 10.4167 25C10.4167 25.5526 10.6362 26.0825 11.0269 26.4732C11.4176 26.8639 11.9475 27.0834 12.5001 27.0834H20.8334C21.3859 27.0834 21.9159 26.8639 22.3066 26.4732C22.6973 26.0825 22.9167 25.5526 22.9167 25C22.9167 24.4475 22.6973 23.9176 22.3066 23.5269C21.9159 23.1362 21.3859 22.9167 20.8334 22.9167H12.5001ZM10.4167 33.3334C10.4167 32.7808 10.6362 32.2509 11.0269 31.8602C11.4176 31.4695 11.9475 31.25 12.5001 31.25H20.8334C21.3859 31.25 21.9159 31.4695 22.3066 31.8602C22.6973 32.2509 22.9167 32.7808 22.9167 33.3334C22.9167 33.8859 22.6973 34.4158 22.3066 34.8065C21.9159 35.1972 21.3859 35.4167 20.8334 35.4167H12.5001C11.9475 35.4167 11.4176 35.1972 11.0269 34.8065C10.6362 34.4158 10.4167 33.8859 10.4167 33.3334Z" fill="#3DFFAE"/>
<path fill-rule="evenodd" clip-rule="evenodd" d="M8.33337 6.25C6.67577 6.25 5.08606 6.90848 3.91396 8.08058C2.74185 9.25269 2.08337 10.8424 2.08337 12.5V37.5C2.08337 39.1576 2.74185 40.7473 3.91396 41.9194C5.08606 43.0915 6.67577 43.75 8.33337 43.75H41.6667C43.3243 43.75 44.914 43.0915 46.0861 41.9194C47.2582 40.7473 47.9167 39.1576 47.9167 37.5V12.5C47.9167 10.8424 47.2582 9.25269 46.0861 8.08058C44.914 6.90848 43.3243 6.25 41.6667 6.25H8.33337ZM41.6667 10.4167H8.33337C7.78084 10.4167 7.25094 10.6362 6.86023 11.0269C6.46953 11.4176 6.25004 11.9475 6.25004 12.5V37.5C6.25004 38.0525 6.46953 38.5824 6.86023 38.9731C7.25094 39.3638 7.78084 39.5833 8.33337 39.5833H41.6667C42.2192 39.5833 42.7491 39.3638 43.1398 38.9731C43.5305 38.5824 43.75 38.0525 43.75 37.5V12.5C43.75 11.9475 43.5305 11.4176 43.1398 11.0269C42.7491 10.6362 42.2192 10.4167 41.6667 10.4167Z" fill="#3DFFAE"/>
</svg>
