<svg width="50" height="50" viewBox="0 0 50 50" fill="none" xmlns="http://www.w3.org/2000/svg">
<path d="M9.54792 36.0853C7.40208 33.8062 6.25 31.2499 6.25 27.1062C6.25 19.8145 11.3687 13.2791 18.8125 10.0479L20.6729 12.9187C13.725 16.677 12.3667 21.5541 11.825 24.6291C12.9437 24.0499 14.4083 23.8479 15.8438 23.9812C19.6021 24.3291 22.5646 27.4145 22.5646 31.2499C22.5646 33.1838 21.7964 35.0385 20.4289 36.4059C19.0615 37.7734 17.2068 38.5416 15.2729 38.5416C14.2035 38.5323 13.1465 38.3103 12.1637 37.8886C11.1808 37.4669 10.2916 36.8539 9.54792 36.0853ZM30.3813 36.0853C28.2354 33.8062 27.0833 31.2499 27.0833 27.1062C27.0833 19.8145 32.2021 13.2791 39.6458 10.0479L41.5062 12.9187C34.5583 16.677 33.2 21.5541 32.6583 24.6291C33.7771 24.0499 35.2417 23.8479 36.6771 23.9812C40.4354 24.3291 43.3979 27.4145 43.3979 31.2499C43.3979 33.1838 42.6297 35.0385 41.2622 36.4059C39.8948 37.7734 38.0401 38.5416 36.1062 38.5416C35.0368 38.5323 33.9799 38.3103 32.997 37.8886C32.0141 37.4669 31.125 36.8539 30.3813 36.0853Z" fill="#1B2143"/>
</svg>
