<svg xmlns="http://www.w3.org/2000/svg" width="50" height="50" fill="none" viewBox="0 0 50 50"><path fill="#1B2143" d="M40.452 13.9147C42.5979 16.1939 43.75 18.7502 43.75 22.8939C43.75 30.1856 38.6333 36.721 31.1875 39.9522L29.327 37.0814C36.275 33.3231 37.6333 28.446 38.177 25.371C37.0583 25.9502 35.5937 26.1522 34.1562 26.0189C30.3979 25.671 27.4354 22.5856 27.4354 18.7502C27.4354 16.8163 28.2036 14.9616 29.5711 13.5942C30.9385 12.2267 32.7932 11.4585 34.727 11.4585C36.9625 11.4585 39.102 12.4793 40.452 13.9147ZM19.6187 13.9147C21.7645 16.1939 22.9166 18.7502 22.9166 22.8939C22.9166 30.1856 17.8 36.721 10.3541 39.9522L8.49371 37.0814C15.4416 33.3231 16.8 28.446 17.3416 25.371C16.2229 25.9502 14.7583 26.1522 13.3229 26.0189C9.56454 25.671 6.60413 22.5856 6.60413 18.7502C6.60413 16.8163 7.37235 14.9616 8.7398 13.5942C10.1073 12.2267 11.9619 11.4585 13.8958 11.4585C16.1312 11.4585 18.2708 12.4793 19.6208 13.9147H19.6187Z"/></svg>